<?xml version="1.0" encoding="utf-8"?>
<svg xmlns="http://www.w3.org/2000/svg" width="696" height="468" viewBox="0 0 696 468" fill="none">
<g clip-path="url(#clip0_4697_44977)">
<path d="M72.9534 94.4199H156.486" stroke="black" stroke-miterlimit="10" stroke-dasharray="2 2"/>
<path d="M173.861 107.48C176.333 107.486 178.751 106.758 180.808 105.389C182.866 104.021 184.472 102.072 185.422 99.7903C186.372 97.5086 186.623 94.9964 186.145 92.5716C185.666 90.1468 184.479 87.9186 182.733 86.1688C180.988 84.4191 178.763 83.2266 176.339 82.7422C173.915 82.2578 171.402 82.5034 169.119 83.4479C166.835 84.3923 164.882 85.9931 163.508 88.0477C162.135 90.1023 161.401 92.5183 161.401 94.9898C161.401 98.2972 162.713 101.469 165.049 103.811C167.385 106.152 170.554 107.472 173.861 107.48Z" fill="white" stroke="black" stroke-linecap="round" stroke-linejoin="round"/>
<path d="M186.381 95.0798C186.381 97.7757 185.508 100.399 183.893 102.558C182.279 104.717 180.009 106.295 177.423 107.058C174.837 107.82 172.074 107.725 169.546 106.787C167.019 105.849 164.863 104.119 163.4 101.854C165.419 103.174 167.782 103.869 170.194 103.853C171.836 103.858 173.463 103.539 174.98 102.913C176.498 102.287 177.877 101.367 179.038 100.206C180.199 99.0454 181.118 97.6665 181.744 96.1487C182.37 94.631 182.69 93.0045 182.684 91.3628C182.701 88.9507 182.006 86.5873 180.686 84.5684C182.442 85.7005 183.885 87.2571 184.88 89.0944C185.876 90.9317 186.392 92.9902 186.381 95.0798Z" fill="black" stroke="black" stroke-linejoin="round"/>
<path d="M236.67 171.518H120.025C118.634 171.518 117.3 172.07 116.316 173.054C115.332 174.038 114.779 175.372 114.779 176.763V245.987C114.779 247.378 115.332 248.713 116.316 249.696C117.3 250.68 118.634 251.233 120.025 251.233H236.67C238.062 251.233 239.396 250.68 240.38 249.696C241.363 248.713 241.916 247.378 241.916 245.987V176.763C241.916 175.372 241.363 174.038 240.38 173.054C239.396 172.07 238.062 171.518 236.67 171.518Z" fill="#FFEEA9" stroke="black" stroke-linecap="round" stroke-linejoin="round"/>
<path d="M232.614 185.366H124.082V237.394H232.614V185.366Z" fill="white"/>
<path d="M130.307 202.103H226.449" stroke="#FFE212" stroke-linecap="round" stroke-linejoin="round"/>
<path d="M130.307 192.79H226.449" stroke="#FFE212" stroke-linecap="round" stroke-linejoin="round"/>
<path d="M130.307 211.375H226.449" stroke="#FFE212" stroke-linecap="round" stroke-linejoin="round"/>
<path d="M130.307 220.667H226.449" stroke="#FFE212" stroke-linecap="round" stroke-linejoin="round"/>
<path d="M130.307 229.97H226.449" stroke="#FFE212" stroke-linecap="round" stroke-linejoin="round"/>
<path d="M131.136 227.342L147.872 225.433L151.559 226.033L155.226 224.534L158.224 225.923L168.376 222.226L170.564 224.134L179.127 217.31L180.976 218.079L193.375 201.103L213.779 192.76" stroke="black" stroke-linecap="round" stroke-linejoin="round"/>
<path d="M114.779 220.277V245.437C115.954 245.673 117.149 245.79 118.346 245.787C121.391 245.786 124.389 245.047 127.085 243.633C129.781 242.218 132.093 240.171 133.823 237.666C135.554 235.162 136.65 232.275 137.019 229.253C137.389 226.231 137.019 223.165 135.942 220.317L114.779 220.277Z" fill="black" stroke="black" stroke-linecap="round" stroke-linejoin="round"/>
<path d="M118.646 235.955C122.358 235.957 125.988 234.858 129.075 232.797C132.162 230.736 134.569 227.805 135.991 224.376C137.412 220.947 137.785 217.173 137.061 213.532C136.337 209.891 134.55 206.547 131.925 203.922C129.3 201.297 125.955 199.51 122.314 198.786C118.674 198.062 114.9 198.435 111.471 199.856C108.041 201.278 105.111 203.684 103.05 206.772C100.988 209.859 99.8894 213.488 99.8914 217.201C99.894 222.174 101.871 226.943 105.387 230.459C108.904 233.976 113.673 235.953 118.646 235.955Z" fill="black" stroke="black" stroke-linecap="round" stroke-linejoin="round"/>
<path d="M118.646 233.447C122.355 233.447 125.982 232.347 129.066 230.286C132.15 228.226 134.554 225.296 135.973 221.869C137.393 218.442 137.764 214.671 137.041 211.033C136.317 207.395 134.531 204.054 131.908 201.431C129.285 198.808 125.943 197.022 122.305 196.298C118.667 195.574 114.896 195.946 111.469 197.365C108.042 198.785 105.113 201.188 103.052 204.273C100.991 207.357 99.8914 210.983 99.8914 214.692C99.8914 219.666 101.867 224.437 105.385 227.954C108.902 231.471 113.672 233.447 118.646 233.447Z" fill="#B1FF05" stroke="black" stroke-linecap="round" stroke-linejoin="round"/>
<path d="M130.926 209.897L126.48 205.45L116.888 215.052L112.361 210.526L107.925 214.972L112.441 219.489L116.888 223.935L121.334 219.489L130.926 209.897Z" fill="white" stroke="black" stroke-linecap="round" stroke-linejoin="round"/>
<path d="M591.242 137.155H410.309V274.574H591.242V137.155Z" fill="white" stroke="black" stroke-linecap="round" stroke-linejoin="round"/>
<path d="M582.22 146.028H419.352V265.721H582.22V146.028Z" fill="#FFE212" stroke="black" stroke-linecap="round" stroke-linejoin="round"/>
<path d="M582.22 234.157L562.656 214.453L537.156 235.665L472.149 178.122L419.372 231.529V265.751H582.24L582.22 234.157Z" fill="#00ED64" stroke="black" stroke-linecap="round" stroke-linejoin="round"/>
<path d="M543.841 197.676C547.328 197.676 550.736 196.641 553.634 194.703C556.532 192.764 558.79 190.01 560.121 186.787C561.453 183.565 561.798 180.02 561.114 176.601C560.429 173.183 558.745 170.044 556.276 167.583C553.806 165.121 550.662 163.448 547.241 162.776C543.82 162.103 540.276 162.46 537.058 163.803C533.84 165.145 531.093 167.412 529.165 170.317C527.236 173.222 526.213 176.633 526.225 180.12C526.238 184.782 528.101 189.249 531.403 192.54C534.705 195.832 539.178 197.678 543.841 197.676Z" fill="white" stroke="black" stroke-linecap="round" stroke-linejoin="round"/>
<path d="M591.242 233.687V267.989C586.753 268.864 582.11 268.524 577.796 267.002C573.482 265.481 569.654 262.834 566.707 259.336C563.759 255.837 561.801 251.614 561.034 247.105C560.268 242.595 560.721 237.962 562.346 233.687H591.242Z" fill="black" stroke="black" stroke-linecap="round" stroke-linejoin="round"/>
<path d="M585.118 245.977C590.179 245.977 595.126 244.477 599.334 241.665C603.542 238.853 606.822 234.856 608.759 230.181C610.696 225.505 611.202 220.36 610.215 215.396C609.228 210.432 606.791 205.872 603.212 202.294C599.633 198.715 595.074 196.278 590.11 195.291C585.146 194.303 580.001 194.81 575.325 196.747C570.649 198.684 566.653 201.963 563.841 206.171C561.029 210.38 559.528 215.327 559.528 220.388C559.528 227.175 562.224 233.683 567.023 238.482C571.822 243.281 578.331 245.977 585.118 245.977Z" fill="black" stroke="black" stroke-linecap="round" stroke-linejoin="round"/>
<path d="M585.118 242.57C590.179 242.57 595.126 241.069 599.334 238.257C603.542 235.446 606.822 231.449 608.759 226.773C610.696 222.098 611.202 216.952 610.215 211.989C609.228 207.025 606.791 202.465 603.212 198.887C599.633 195.308 595.074 192.871 590.11 191.883C585.146 190.896 580.001 191.403 575.325 193.339C570.649 195.276 566.653 198.556 563.841 202.764C561.029 206.972 559.528 211.92 559.528 216.981C559.528 223.768 562.224 230.276 567.023 235.075C571.822 239.874 578.331 242.57 585.118 242.57Z" fill="#B1FF05" stroke="black" stroke-linecap="round" stroke-linejoin="round"/>
<path d="M601.854 210.426L595.789 204.371L582.71 217.46L576.535 211.295L570.479 217.361L576.645 223.526L582.71 229.581L588.765 223.526L601.854 210.426Z" fill="white" stroke="black" stroke-linecap="round" stroke-linejoin="round"/>
<path d="M397.72 372.375L166.757 372.275L213.649 227.582L444.622 227.682L397.72 372.375Z" fill="white" stroke="black" stroke-linecap="round" stroke-linejoin="round"/>
<path d="M388.777 362.322H182.245L222.602 237.644H429.124L388.777 362.322Z" fill="#FFE212" stroke="black" stroke-linecap="round" stroke-linejoin="round"/>
<path d="M293.005 372.274H40.4995V385.604H293.005V372.274Z" fill="white" stroke="black" stroke-linecap="round" stroke-linejoin="round"/>
<path d="M397.72 372.354H293.005V385.654H397.72V372.354Z" fill="black" stroke="black" stroke-linecap="round" stroke-linejoin="round"/>
<path d="M247.921 264.851L421.111 300.203L434.939 257.527L247.921 264.851Z" fill="black" stroke="black" stroke-linecap="round" stroke-linejoin="round"/>
<path d="M449.907 110.177V255.169C449.91 256.453 449.659 257.725 449.169 258.912C448.679 260.099 447.959 261.177 447.051 262.085C446.143 262.993 445.065 263.713 443.878 264.203C442.691 264.693 441.419 264.944 440.135 264.941H260.481V100.425H440.175C441.459 100.422 442.731 100.673 443.918 101.163C445.105 101.653 446.183 102.373 447.091 103.281C447.999 104.189 448.719 105.267 449.209 106.454C449.699 107.641 449.95 108.913 449.947 110.197L449.907 110.177Z" fill="white" stroke="black" stroke-linecap="round" stroke-linejoin="round"/>
<path d="M260.481 100.425V264.942H249.03C246.439 264.942 243.953 263.912 242.12 262.08C240.288 260.247 239.258 257.761 239.258 255.17V110.177C239.258 107.586 240.288 105.1 242.12 103.267C243.953 101.435 246.439 100.405 249.03 100.405L260.481 100.425Z" fill="#00ED64" stroke="black" stroke-linecap="round" stroke-linejoin="round"/>
<path d="M274.31 124.166H401.906" stroke="black" stroke-linecap="round" stroke-linejoin="round"/>
<path d="M320.872 140.243H380.913" stroke="black" stroke-linecap="round" stroke-linejoin="round"/>
<path d="M274.31 140.243H311.28" stroke="black" stroke-linecap="round" stroke-linejoin="round"/>
<path d="M311.989 171.457H380.933" stroke="black" stroke-linecap="round" stroke-linejoin="round"/>
<path d="M274.31 171.457H297.891" stroke="black" stroke-linecap="round" stroke-linejoin="round"/>
<path d="M309.931 202.662H380.873" stroke="black" stroke-linecap="round" stroke-linejoin="round"/>
<path d="M274.31 202.662H299.369" stroke="black" stroke-linecap="round" stroke-linejoin="round"/>
<path d="M309.931 155.84H424.968" stroke="black" stroke-linecap="round" stroke-linejoin="round"/>
<path d="M274.31 155.84H298.96" stroke="black" stroke-linecap="round" stroke-linejoin="round"/>
<path d="M318.824 218.27H401.956" stroke="black" stroke-linecap="round" stroke-linejoin="round"/>
<path d="M274.31 218.27H311.28" stroke="black" stroke-linecap="round" stroke-linejoin="round"/>
<path d="M327.027 187.055H413.767" stroke="black" stroke-linecap="round" stroke-linejoin="round"/>
<path d="M274.31 187.055H316.775" stroke="black" stroke-linecap="round" stroke-linejoin="round"/>
<path d="M327.027 233.077H413.767" stroke="black" stroke-linecap="round" stroke-linejoin="round"/>
<path d="M274.31 233.077H316.775" stroke="black" stroke-linecap="round" stroke-linejoin="round"/>
<path d="M505.392 297.076V305.019C500.856 304.94 497.768 306.188 495.4 308.776C493.032 311.364 491.713 317.299 491.464 326.542C491.423 331.783 491.015 337.015 490.245 342.199C489.759 345.342 488.37 348.275 486.248 350.642C484.102 352.926 481.367 354.573 478.344 355.399C475.147 356.338 470.65 356.724 464.855 356.558L461.538 356.478L461.938 341.56C467.993 341.726 471.633 341.197 472.859 339.971C474.084 338.745 474.794 336.324 474.987 332.707C475.52 322.715 476.023 316.214 476.496 313.203C476.977 310.205 477.992 307.318 479.493 304.68C481.012 302.015 483.77 299.471 487.767 297.046L505.392 297.076Z" fill="#00ED64" stroke="black" stroke-linecap="round" stroke-linejoin="round"/>
<path d="M487.137 296.875C483.772 294.939 480.992 292.129 479.094 288.742C477.425 285.595 476.476 281.078 476.216 275.203L475.416 256.968C475.277 256.156 474.967 255.383 474.507 254.7C474.049 254.013 473.454 253.427 472.759 252.981C471.34 252.062 468.092 251.592 462.997 251.552L463.116 236.564H466.364C473.038 236.564 478.184 237.424 481.811 238.963C485.289 240.39 488.093 243.087 489.655 246.506C491.247 249.984 492.013 255.586 491.953 263.313C491.883 271.826 492.143 277.301 492.712 279.649C493.295 282.068 494.43 284.319 496.03 286.224C497.698 288.223 500.836 289.322 505.462 289.521L505.402 297.085L487.137 296.875Z" fill="white" stroke="black" stroke-linecap="round" stroke-linejoin="round"/>
<path d="M531.881 274.503H515.894L515.394 263.412C515.253 262.598 514.943 261.822 514.485 261.134C514.03 260.444 513.434 259.859 512.736 259.416C511.318 258.506 508.07 258.027 502.984 257.997L503.094 242.959H506.352C513.013 243.012 518.162 243.815 521.799 245.367C525.283 246.781 528.089 249.482 529.633 252.911C531.231 256.388 532.001 261.99 531.941 269.717C531.901 271.456 531.881 273.045 531.881 274.503Z" fill="black" stroke="black" stroke-linecap="round" stroke-linejoin="round"/>
<path d="M521.27 296.955H631.85" stroke="black" stroke-miterlimit="10" stroke-dasharray="2 2"/>
<path d="M573.467 317.299H656" stroke="black" stroke-miterlimit="10" stroke-dasharray="2 2"/>
</g>
<defs>
<clipPath id="clip0_4697_44977">
<rect width="616" height="304.163" fill="white" transform="translate(40 82)"/>
</clipPath>
</defs>
</svg>